<svg width="18" height="18" viewBox="0 0 18 18" fill="none" xmlns="http://www.w3.org/2000/svg">
<circle cx="9" cy="9" r="9" fill="#F1F1F1"/>
<path d="M11.8701 5.3584L9.14776 8.08076L6.4254 5.3584L6.31933 5.25233L6.21326 5.3584L5.50616 6.06551L5.40009 6.17157L5.50616 6.27764L8.22852 9L5.60283 11.6257L5.49677 11.7318L5.60283 11.8378L6.30994 12.5449L6.41601 12.651L6.52207 12.5449L9.14776 9.91924L11.8701 12.6416L11.9762 12.7477L12.0823 12.6416L12.7894 11.9345L12.8954 11.8284L12.7894 11.7224L10.067 9L12.7894 6.27764L12.8954 6.17157L12.7894 6.06551L12.0823 5.3584L11.9762 5.25233L11.8701 5.3584Z" fill="#565656" stroke="#565656" stroke-width="0.3"/>
</svg>
