<svg width="13" height="14" viewBox="0 0 13 14" fill="none" xmlns="http://www.w3.org/2000/svg">
<g clip-path="url(#clip0_4066_42531)">
<path d="M8.58917 13.12H1.48066C0.872769 13.12 0.379883 12.6267 0.379883 12.0182V4.90334C0.379883 4.2949 0.872769 3.80157 1.48066 3.80157H8.58917C9.19706 3.80157 9.68995 4.2949 9.68995 4.90334V12.0182C9.68995 12.6267 9.19706 13.12 8.58917 13.12ZM1.48066 4.89786V12.0182H8.58917V4.90334H1.48066V4.89786Z" fill="#565656"/>
<path d="M11.4809 0.880005H4.45454C3.82475 0.880005 3.31543 1.38978 3.31543 2.02014V3.28086H4.41073V2.02014C4.41073 2.02014 4.43264 1.97629 4.45454 1.97629H11.4864C11.4864 1.97629 11.5302 1.99821 11.5302 2.02014V9.05828C11.5302 9.05828 11.5083 9.10213 11.4864 9.10213H10.2268V10.1984H11.4864C12.1162 10.1984 12.6255 9.68864 12.6255 9.05828V2.02014C12.6255 1.38978 12.1162 0.880005 11.4864 0.880005H11.4809Z" fill="#565656"/>
</g>
<defs>
<clipPath id="clip0_4066_42531">
<rect width="12.24" height="12.24" fill="white" transform="translate(0.379883 0.880005)"/>
</clipPath>
</defs>
</svg>
