<svg width="32" height="32" viewBox="0 0 32 32" fill="none" xmlns="http://www.w3.org/2000/svg">
<g id="Discord">
<circle id="Ellipse 1" cx="16" cy="16" r="16" fill="black"/>
<path id="Subtract" d="M18.2889 9.07856C16.7517 8.84713 15.2224 8.84713 13.7167 9.07856C13.6049 8.80872 13.4494 8.48946 13.2998 8.21001L12.9233 8.03857L9.03869 9.29338L6.47589 15.0001L6.0293 20.0001L6.47863 21.3205L10.8778 23.2162L11.2685 23.1181L12.1066 21.7256L12.0456 21.5001L10.5695 20.7423L10.9396 20.4332L15.3017 22.2144H16.6991L21.0485 20.4324L21.4212 20.7551L19.9465 21.5001L19.8859 21.7256L20.7218 23.1181L21.0892 23.2162L25.1317 21.3205L25.8656 20.0001L25.531 15.0001L22.9582 9.29413L19.0909 8.04173L18.7008 8.20716C18.5528 8.48893 18.4012 8.81342 18.2889 9.07856Z" fill="white"  />
<path id="Vector 458" d="M12.501 14.5L11.001 16V17.5L12.501 18.5L14.001 18L14.501 15.5L12.501 14.5Z" fill="black"/>
<path id="Vector 459" d="M18.8916 14.5L17.3916 16V17.5L18.8916 18.5L20.3916 18L20.8916 15.5L18.8916 14.5Z" fill="black"/>
</g>
</svg>
