<svg width="24" height="24" viewBox="0 0 24 24" fill="none" xmlns="http://www.w3.org/2000/svg">
<path d="M12.0001 4.96475C12.1099 4.96475 12.3157 4.99892 12.4461 5.21766L16.3015 11.8686L20.1569 18.5195C20.2872 18.745 20.2118 18.9364 20.1569 19.0321C20.102 19.1278 19.9717 19.285 19.711 19.285H4.28931C4.02862 19.285 3.89828 19.1278 3.84339 19.0321C3.78851 18.9364 3.71305 18.745 3.84339 18.5195L7.69881 11.8754L11.5611 5.21766C11.6914 4.99209 11.8972 4.96475 12.007 4.96475M12.007 3.59766C11.369 3.59766 10.7379 3.91209 10.3743 4.53411L6.512 11.1918L2.65658 17.8427C1.92941 19.0936 2.83495 20.6589 4.28931 20.6589H19.711C21.1653 20.6589 22.0709 19.0936 21.3437 17.8427L17.4883 11.1918L13.6329 4.53411C13.2693 3.90525 12.6381 3.59766 12.0001 3.59766H12.007Z" fill="#EC1A26"/>
<path d="M13.0292 9.93938C13.0292 9.37311 12.5685 8.91406 12.0002 8.91406C11.4318 8.91406 10.9711 9.37311 10.9711 9.93938V14.0407C10.9711 14.6069 11.4318 15.066 12.0002 15.066C12.5685 15.066 13.0292 14.6069 13.0292 14.0407V9.93938Z" fill="#EC1A26"/>
<path d="M12.0001 17.8153C12.5684 17.8153 13.0291 17.3562 13.0291 16.79C13.0291 16.2237 12.5684 15.7646 12.0001 15.7646C11.4318 15.7646 10.9711 16.2237 10.9711 16.79C10.9711 17.3562 11.4318 17.8153 12.0001 17.8153Z" fill="#EC1A26"/>
</svg>
