<svg width="24" height="24" viewBox="0 0 24 24" fill="current" xmlns="http://www.w3.org/2000/svg">
<path d="M4 4.5L3.29289 3.79289L3 4.08579V4.5H4ZM4.5 4V3H4.08579L3.79289 3.29289L4.5 4ZM4 7H3V7.43323L3.31606 7.72954L4 7ZM9.49999 12.1562H10.5V11.723L10.1839 11.4267L9.49999 12.1562ZM9.49999 19.5H8.49999V20.118L9.05278 20.3944L9.49999 19.5ZM10.5 20L10.0528 20.8944L10.4676 21.1018L10.8939 20.9191L10.5 20ZM14 18.5L14.3939 19.4192L14.7436 19.2693L14.9052 18.9249L14 18.5ZM14.5 17.4348L15.4052 17.8596L15.5271 17.6001L15.4928 17.3154L14.5 17.4348ZM13.9296 12.691L13.2456 11.9615L12.8763 12.3078L12.9367 12.8104L13.9296 12.691ZM20 7L20.6839 7.72954L21 7.43323V7H20ZM20 4.5H21V4.08579L20.7071 3.79289L20 4.5ZM19.5 4L20.2071 3.29289L19.9142 3H19.5V4ZM4.70711 5.20711L5.20711 4.70711L3.79289 3.29289L3.29289 3.79289L4.70711 5.20711ZM5 7V4.5H3V7H5ZM10.1839 11.4267L4.68394 6.27046L3.31606 7.72954L8.81605 12.8858L10.1839 11.4267ZM8.49999 12.1562V19.5H10.5V12.1562H8.49999ZM9.05278 20.3944L10.0528 20.8944L10.9472 19.1056L9.94721 18.6056L9.05278 20.3944ZM10.8939 20.9191L14.3939 19.4192L13.6061 17.5809L10.1061 19.0809L10.8939 20.9191ZM14.9052 18.9249L15.4052 17.8596L13.5948 17.0099L13.0948 18.0751L14.9052 18.9249ZM15.4928 17.3154L14.9224 12.5716L12.9367 12.8104L13.5071 17.5541L15.4928 17.3154ZM19.3161 6.27046L13.2456 11.9615L14.6135 13.4206L20.6839 7.72954L19.3161 6.27046ZM19 4.5V7H21V4.5H19ZM18.7929 4.70711L19.2929 5.20711L20.7071 3.79289L20.2071 3.29289L18.7929 4.70711ZM4.5 5H19.5V3H4.5V5Z" fill="current"/>
</svg>
