<svg width="32" height="32" viewBox="0 0 32 32" fill="none" xmlns="http://www.w3.org/2000/svg">
<g id="Gitbook">
<path id="Union" fill-rule="evenodd" clip-rule="evenodd" d="M16 32C24.8366 32 32 24.8366 32 16C32 7.16344 24.8366 0 16 0C7.16344 0 0 7.16344 0 16C0 24.8366 7.16344 32 16 32ZM26.0224 18.5496L27.1644 18.1252L28.0131 16.6788L27.7524 14.9607L26.5453 14.1779L24.6531 14.2105L23.4785 15.5805L23.7065 16.6788L16.5939 21.0124L14.7994 19.6908L13.5596 20.1804L12.9397 21.0124L6.08851 17.5705L5.17538 15.9334L5.37088 14.4687L6.18626 13.9816L13.8139 18.0434L16.3038 18.126L25.7227 12.3802L25.5813 10.732L19.1059 7.48954L18.0943 7L16.6916 7.24477L5.66413 12.7108L4.42438 13.7877L4 14.8971L4.32663 16.6804L5.14201 18.192L7.42602 19.5621L12.6465 22.2371L13.7885 23.8631L14.9631 24.1619L16.2029 23.8631L16.9856 22.0408L24.5545 17.9297L26.0224 18.5496ZM14.4524 23.0191L13.78 21.8978L14.4524 20.8662L15.7088 21.6292L15.4847 22.795L14.4524 23.0191ZM24.8115 16.2027L25.5148 17.3749L26.5933 17.1405L26.8285 15.9214L25.5148 15.1243L24.8115 16.2027Z" fill="white"/>
</g>
</svg>
