<svg width="24" height="24" viewBox="0 0 28 28" fill="none" xmlns="http://www.w3.org/2000/svg">
<path d="M26.9 13.8225V13.7433L26.8862 13.6653L26.3121 10.4303L26.3115 10.4271C26.2498 10.086 26.1398 9.74958 25.9794 9.43307C25.9791 9.43253 25.9789 9.432 25.9786 9.43146L24.7784 7.04808L24.7762 7.04386C24.5897 6.67834 24.3419 6.34089 24.0346 6.05365C24.0339 6.05301 24.0332 6.05236 24.0325 6.05172L23.3688 5.4256L23.3681 5.42496L21.3567 3.53144L21.555 3.28206L20.514 2.80202L19.9626 2.54774L19.9625 2.5477L18.3752 1.81587L18.3749 1.81572C18.0455 1.66399 17.6969 1.56561 17.3416 1.52145L17.3234 1.5192L17.3052 1.51769L15.6492 1.37977L15.6119 1.37667H15.6111L15.0191 1.32723L15.0187 1.3272L12.4535 1.11422L12.4524 1.11413C11.9285 1.07129 11.4017 1.12604 10.8978 1.27626L10.8103 1.30234L10.8057 1.30478C10.7397 1.32577 10.6722 1.34909 10.6037 1.37521C10.6031 1.37547 10.6024 1.37573 10.6017 1.37599L7.30196 2.62057C6.73904 2.78812 6.22316 3.08844 5.79727 3.4935L5.79636 3.49437L5.06528 4.19166L5.06346 4.19264L4.97507 4.27696L3.90343 5.29923C3.90339 5.29927 3.90334 5.29931 3.9033 5.29935C3.85941 5.34116 3.82589 5.36825 3.79285 5.39369C3.79069 5.39536 3.78698 5.39815 3.78202 5.40188C3.75168 5.42473 3.67426 5.483 3.61463 5.53651C3.39285 5.73549 3.27463 5.96138 3.17729 6.22084C3.17726 6.22091 3.17723 6.22098 3.17721 6.22105C3.17719 6.22108 3.17718 6.22112 3.17717 6.22116L2.20958 8.79782L2.20944 8.79778L1.93311 9.53367L1.7122 10.122L1.71106 10.125C1.60285 10.4164 1.53211 10.7213 1.50086 11.0319C1.50084 11.032 1.50083 11.0322 1.50082 11.0323L1.30686 12.9448L1.30487 12.9619L1.30478 12.9619L1.30349 12.9747L1.11788 14.807L1.11787 14.807L1.11745 14.8114C1.10085 14.9837 1.09607 15.1582 1.10321 15.3308L1.10329 15.3328C1.11843 15.6804 1.16517 16.3652 1.31255 17.1308C1.45711 17.8817 1.71267 18.7886 2.18646 19.5308L2.19882 19.5502L2.21216 19.5689L5.10238 23.6239L5.10267 23.6243C5.27047 23.8594 5.46545 24.0729 5.68401 24.2604L5.68512 24.2613L5.95946 24.4958L5.95945 24.4959L5.96377 24.4995C6.20854 24.7061 6.48347 24.8839 6.78414 25.0205L6.83806 25.045L6.89473 25.0622C6.97206 25.0857 7.05329 25.1106 7.13562 25.1358C7.24414 25.169 7.35457 25.2028 7.46052 25.2348C7.77229 25.3301 8.09107 25.4311 8.41506 25.5337C9.33412 25.8248 10.2951 26.1292 11.2567 26.3543L11.257 26.3544C12.234 26.5827 13.2515 26.6895 14.1975 26.7888C14.4627 26.8166 14.7222 26.8439 14.9736 26.873L14.9743 26.8731C15.7093 26.9578 16.2997 26.8294 16.8839 26.6623L16.8858 26.6618C17.6719 26.4353 18.371 26.0874 19.0145 25.7569L19.0147 25.7568L22.1195 24.1609L22.1267 24.1572L22.1339 24.1534C22.6656 23.8678 23.1149 23.4489 23.4407 22.9412L23.442 22.9391L26.0325 18.8785L26.0368 18.8719L26.0409 18.8652L25.2738 18.3945C26.0409 18.8652 26.0412 18.8647 26.0415 18.8642L26.0421 18.8631L26.0434 18.861L26.0462 18.8563L26.0525 18.8458C26.057 18.8381 26.062 18.8294 26.0675 18.8194C26.0786 18.7995 26.0918 18.775 26.1068 18.7454C26.1367 18.6862 26.1736 18.6072 26.215 18.5061C26.2979 18.304 26.3986 18.014 26.497 17.6184C26.6937 16.8279 26.8817 15.6146 26.9 13.8346L26.9 13.8346V13.8253V13.8225Z" fill="#FFDD00" stroke="#FDB600" stroke-width="1.8"/>
<g style="mix-blend-mode:multiply">
<path d="M23.5027 14.4571L23.4573 14.632L22.484 18.4167L22.483 18.4213L22.4132 18.6913C22.3643 18.878 22.2646 19.0502 22.1223 19.1862L20.1665 21.0704C20.1112 21.1229 20.0515 21.171 19.9862 21.2117L18.4183 22.1779C18.3549 22.2168 18.2859 22.2494 18.2143 22.2758C18.1645 22.2903 18.1137 22.3039 18.0639 22.3165C17.9352 22.3528 17.8047 22.389 17.6742 22.4253C17.5437 22.4606 17.4141 22.496 17.2845 22.5323L16.2812 22.8069C16.1652 22.8386 16.0501 22.8703 15.9341 22.902C15.7737 22.9464 15.6142 22.9908 15.4538 23.0335C15.4175 23.0434 15.3822 23.0534 15.345 23.0652L15.1275 23.1241C15.122 23.1259 15.1166 23.1278 15.1112 23.1286C15.0794 23.135 15.0495 23.1422 15.0179 23.1468C14.9236 23.1613 14.8321 23.1685 14.7378 23.1695C14.6191 23.1649 14.5022 23.1468 14.4052 23.1223L9.31641 22.1462L9.24483 22.1317C9.22303 22.1263 9.20135 22.1199 9.17955 22.1127C9.15873 22.1063 9.13878 22.0991 9.11791 22.091C9.07622 22.0747 9.03453 22.0556 8.99469 22.0339V22.033C8.95751 22.014 8.92126 21.9913 8.88686 21.9668C8.87148 21.956 8.85604 21.9451 8.84152 21.9333L5.54534 19.3495L5.45381 19.2779C5.23814 19.1093 5.09584 18.8637 5.05866 18.5946L4.4587 14.2697L4.41158 13.9308C4.39706 13.822 4.39978 13.7124 4.41887 13.6054L5.01067 10.2984C5.02883 10.1978 5.06051 10.1017 5.10764 10.0111L5.81185 8.619C5.88528 8.47491 5.99219 8.34619 6.12449 8.2483L10.0442 5.32819L10.1792 5.22758C10.191 5.2185 10.2019 5.20763 10.21 5.19584C10.2708 5.14871 10.3333 5.10338 10.4031 5.07077C10.4982 5.02544 10.6033 5.00641 10.7103 5.0019C10.8635 4.99375 11.023 5.0137 11.1707 5.0255C11.1798 5.02729 11.1879 5.02914 11.1961 5.02914C11.2614 5.03278 11.3275 5.0355 11.3937 5.03908C11.42 5.04001 11.4453 5.0418 11.4716 5.04273C11.5858 5.04909 11.7009 5.05539 11.8151 5.06082C11.9483 5.06811 12.0815 5.07534 12.2147 5.08164C12.3588 5.08979 12.5038 5.09708 12.6471 5.1043L12.657 5.10523L13.1301 5.12969C13.2932 5.13784 13.4564 5.14692 13.6195 5.15507C13.6757 5.15779 13.7318 5.16051 13.788 5.16415L14.1143 5.18046C14.2757 5.18954 14.4378 5.19769 14.6001 5.20584L15.065 5.2303C15.2091 5.23753 15.3524 5.24574 15.4964 5.25297C15.6242 5.25933 15.7529 5.26655 15.8807 5.27292C15.9886 5.27835 16.0973 5.28379 16.2061 5.29015C16.2895 5.29466 16.3738 5.2983 16.458 5.30281C16.5142 5.30553 16.5704 5.30917 16.6257 5.31189C16.6402 5.31281 16.6547 5.31368 16.6701 5.31368C16.6792 5.3146 16.6882 5.31547 16.6973 5.31547C16.9075 5.32541 17.1105 5.39792 17.2809 5.5212L22.1133 9.03039C22.3208 9.18085 22.4668 9.40109 22.5239 9.64851L23.509 13.9679C23.5452 14.1301 23.5443 14.2976 23.5027 14.4571Z" fill="#E09806"/>
</g>
<path d="M19.9007 16.6516C19.7022 15.5541 19.6931 15.3746 19.4983 14.278C19.3424 13.4025 19.1919 12.5443 18.9201 11.7367C18.6908 11.0525 18.3745 10.4045 17.8959 9.81175C17.8723 9.78544 17.8497 9.75554 17.8252 9.72744C17.7763 9.67124 17.7273 9.61503 17.6757 9.55889C17.4564 9.32142 17.2225 9.11118 16.9733 8.93176L16.6606 8.72603C15.9664 8.30278 15.1806 8.07802 14.3487 8.01824C14.1466 8.00372 13.9427 7.99742 13.7406 8.00101C13.5366 7.99736 13.3346 8.00372 13.1325 8.01824C12.6848 8.04998 12.2498 8.13065 11.8355 8.26387C11.0752 8.50764 10.3828 8.92997 9.80634 9.55895C9.75378 9.61516 9.7048 9.67136 9.65682 9.7275C9.63236 9.7556 9.60969 9.7855 9.58523 9.81181C9.23084 10.2504 8.96533 10.7199 8.75867 11.2112C8.40329 12.0536 8.21967 12.963 8.05082 13.8982L8.96131 14.1774L7.98288 14.278C7.78623 15.3747 7.78623 15.5033 7.58773 16.6009C7.58408 16.6253 7.40831 17.6204 7.40466 17.6449L9.10578 18.1035C12.1419 18.9218 15.3392 18.9218 18.3753 18.1035L19.0578 17.9195L20.0774 17.6449C20.0729 17.6204 19.9043 16.6752 19.9007 16.6516ZM11.1875 14.0886C10.9084 14.0886 10.68 13.8548 10.68 13.5684C10.68 13.4297 10.7325 13.3046 10.8205 13.2104L11.676 13.4243C11.6896 13.4687 11.6968 13.5176 11.6968 13.5684C11.6968 13.8548 11.4685 14.0886 11.1875 14.0886ZM15.854 15.1372C15.7987 15.3021 15.69 15.4707 15.5395 15.6275C15.1516 16.029 14.4846 16.3552 13.726 16.3552C12.5279 16.3552 11.5564 15.5414 11.5564 14.8952C11.5564 14.3668 12.2107 14.1167 13.107 14.0433C13.3028 14.027 13.5113 14.0197 13.726 14.0197C14.9241 14.0197 15.8948 14.2517 15.8948 14.8952C15.8948 14.9741 15.8821 15.0547 15.854 15.1372ZM16.2618 14.0886C15.9809 14.0886 15.7552 13.8548 15.7552 13.5684C15.7552 13.5176 15.7625 13.4687 15.7751 13.4243L16.6307 13.2104C16.7168 13.3046 16.7712 13.4297 16.7712 13.5684C16.7712 13.8548 16.5428 14.0886 16.2618 14.0886Z" fill="#FFDD00"/>
</svg>
