<svg width="20" height="20" viewBox="0 0 20 20" fill="none" xmlns="http://www.w3.org/2000/svg">
<g id="logo_googleg_48dp">
<path id="Shape" fill-rule="evenodd" clip-rule="evenodd" d="M19.6 10.2269C19.6 9.51781 19.5364 8.83599 19.4182 8.18144H10V12.0496H15.3818C15.15 13.2996 14.4455 14.3587 13.3864 15.0678V17.5769H16.6182C18.5091 15.836 19.6 13.2724 19.6 10.2269Z" fill="#4285F4"/>
<path id="Shape_2" fill-rule="evenodd" clip-rule="evenodd" d="M9.9992 20.0005C12.6992 20.0005 14.9628 19.1051 16.6174 17.5778L13.3856 15.0687C12.4901 15.6687 11.3447 16.0233 9.9992 16.0233C7.39465 16.0233 5.19011 14.2642 4.40374 11.9005H1.06284V14.4914C2.70829 17.7596 6.09011 20.0005 9.9992 20.0005Z" fill="#34A853"/>
<path id="Shape_3" fill-rule="evenodd" clip-rule="evenodd" d="M4.40455 11.8998C4.20455 11.2998 4.09091 10.6589 4.09091 9.99984C4.09091 9.34074 4.20455 8.69984 4.40455 8.09984V5.50893H1.06364C0.386364 6.85893 0 8.3862 0 9.99984C0 11.6135 0.386364 13.1407 1.06364 14.4907L4.40455 11.8998Z" fill="#FBBC05"/>
<path id="Shape_4" fill-rule="evenodd" clip-rule="evenodd" d="M9.9992 3.97675C11.4674 3.97675 12.7856 4.4813 13.8219 5.47221L16.6901 2.60403C14.9583 0.99039 12.6947 -0.000518799 9.9992 -0.000518799C6.09011 -0.000518799 2.70829 2.24039 1.06284 5.50857L4.40374 8.09948C5.19011 5.73585 7.39465 3.97675 9.9992 3.97675Z" fill="#EA4335"/>
</g>
</svg>
