<svg width="24" height="24" viewBox="0 0 24 24" fill="none" xmlns="http://www.w3.org/2000/svg">
<path fill-rule="evenodd" clip-rule="evenodd" d="M13 7.5L12.5 12L16 14.5L14.5 16L11 12.9142V7L13 7.5Z" fill="#929292"/>
<path fill-rule="evenodd" clip-rule="evenodd" d="M5 3.5V8H8.5L9 10H3V4.5L5 3.5Z" fill="#929292"/>
<path fill-rule="evenodd" clip-rule="evenodd" d="M13.879 5.25693C12.3286 4.82488 10.6767 4.9403 9.2014 5.58378C7.72613 6.22725 6.51766 7.35945 5.77952 8.7897L5.32091 9.67834L3.54364 8.76111L4.00225 7.87247C4.95129 6.03357 6.50503 4.57789 8.4018 3.75057C10.2986 2.92325 12.4225 2.77484 14.4159 3.33033C16.4093 3.88583 18.1504 5.11129 19.346 6.80034C20.5415 8.48939 21.1185 10.5388 20.9797 12.6035C20.8409 14.6682 19.9949 16.622 18.5841 18.1359C17.1733 19.6498 15.2839 20.6312 13.2341 20.915C11.1843 21.1987 9.09928 20.7675 7.33027 19.6938C5.56126 18.6201 4.21629 16.9696 3.52186 15.0202L3.18628 14.0782L5.40588 14.349C5.94599 15.8652 6.99208 17.1489 8.36798 17.984C9.74388 18.8191 11.3655 19.1546 12.9598 18.9339C14.5541 18.7132 16.0237 17.9498 17.121 16.7724C18.2183 15.5949 18.8763 14.0753 18.9842 12.4694C19.0921 10.8635 18.6434 9.26952 17.7135 7.95582C16.7836 6.64212 15.4295 5.68898 13.879 5.25693Z" fill="#929292"/>
</svg>
