<svg width="15" height="7" viewBox="0 0 15 7" fill="none" xmlns="http://www.w3.org/2000/svg">
<path d="M4.00923 0.431818C4.41832 0.431818 4.79332 0.492424 5.13423 0.613636C5.47893 0.73106 5.78954 0.886363 6.06605 1.07955C6.34635 1.26894 6.59257 1.4697 6.80469 1.68182C6.94105 1.80682 7.06605 1.93561 7.17969 2.06818C7.29711 2.20076 7.40696 2.32955 7.50923 2.45455C7.60014 2.32955 7.69673 2.20644 7.79901 2.08523C7.90128 1.96402 8.03196 1.82955 8.19105 1.68182C8.50923 1.36364 8.90128 1.07576 9.36719 0.818182C9.83688 0.560606 10.3842 0.431818 11.0092 0.431818C11.585 0.431818 12.1077 0.57197 12.5774 0.852273C13.0509 1.12879 13.4259 1.50379 13.7024 1.97727C13.9827 2.44697 14.1229 2.9697 14.1229 3.54545C14.1229 3.98106 14.0414 4.39015 13.8786 4.77273C13.7195 5.15152 13.4979 5.48485 13.2138 5.77273C12.9297 6.05682 12.5982 6.2803 12.2195 6.44318C11.8445 6.60227 11.4411 6.68182 11.0092 6.68182C10.5926 6.68182 10.21 6.62311 9.86151 6.50568C9.51681 6.38447 9.20431 6.23106 8.92401 6.04545C8.64749 5.85606 8.40317 5.65909 8.19105 5.45455C8.05469 5.31818 7.92969 5.18371 7.81605 5.05114C7.70242 4.91477 7.60014 4.78409 7.50923 4.65909C7.40696 4.78409 7.29711 4.91477 7.17969 5.05114C7.06605 5.18371 6.94105 5.31818 6.80469 5.45455C6.59257 5.65909 6.34635 5.85606 6.06605 6.04545C5.78954 6.23106 5.47893 6.38447 5.13423 6.50568C4.79332 6.62311 4.41832 6.68182 4.00923 6.68182C3.4259 6.68182 2.89749 6.54167 2.42401 6.26136C1.95052 5.98106 1.57363 5.60417 1.29332 5.13068C1.01302 4.6572 0.872869 4.12879 0.872869 3.54545C0.872869 3.11364 0.952415 2.71023 1.11151 2.33523C1.27438 1.95644 1.49787 1.625 1.78196 1.34091C2.06984 1.05682 2.40317 0.835227 2.78196 0.676136C3.16454 0.513257 3.57363 0.431818 4.00923 0.431818ZM2.16832 3.54545C2.16832 3.88636 2.24976 4.19697 2.41264 4.47727C2.57931 4.75379 2.8009 4.97538 3.07741 5.14205C3.35772 5.30492 3.66832 5.38636 4.00923 5.38636C4.38423 5.38636 4.72704 5.30114 5.03764 5.13068C5.34825 4.96023 5.63423 4.75 5.8956 4.5C6.06605 4.32955 6.21567 4.16477 6.34446 4.00568C6.47325 3.84659 6.58878 3.69318 6.69105 3.54545C6.58878 3.40909 6.47514 3.26326 6.35014 3.10795C6.22893 2.94886 6.07741 2.78409 5.8956 2.61364C5.6456 2.36364 5.36151 2.15341 5.04332 1.98295C4.72893 1.8125 4.38423 1.72727 4.00923 1.72727C3.66832 1.72727 3.35772 1.81061 3.07741 1.97727C2.8009 2.14015 2.57931 2.35985 2.41264 2.63636C2.24976 2.90909 2.16832 3.21212 2.16832 3.54545ZM12.8274 3.54545C12.8274 3.21212 12.7441 2.90909 12.5774 2.63636C12.4145 2.35985 12.1948 2.14015 11.9183 1.97727C11.6456 1.81061 11.3426 1.72727 11.0092 1.72727C10.7517 1.72727 10.5092 1.76705 10.282 1.84659C10.0547 1.92235 9.84257 2.02841 9.6456 2.16477C9.44863 2.29735 9.26681 2.44697 9.10014 2.61364C8.8956 2.80682 8.72514 2.99432 8.58878 3.17614C8.4562 3.35417 8.36151 3.47727 8.30469 3.54545C8.40696 3.69318 8.52249 3.84659 8.65128 4.00568C8.78007 4.16477 8.92969 4.32955 9.10014 4.5C9.36151 4.75 9.64749 4.96023 9.9581 5.13068C10.2725 5.30114 10.6229 5.38636 11.0092 5.38636C11.3426 5.38636 11.6456 5.30492 11.9183 5.14205C12.1948 4.97538 12.4145 4.75379 12.5774 4.47727C12.7441 4.19697 12.8274 3.88636 12.8274 3.54545Z" fill="#565656"/>
</svg>
