<svg width="28" height="28" viewBox="0 0 28 28" fill="none" xmlns="http://www.w3.org/2000/svg">
<path fill-rule="evenodd" clip-rule="evenodd" d="M16.94 9.94V7.7C16.94 6.46288 15.9371 5.46 14.7 5.46C13.4629 5.46 12.46 6.46288 12.46 7.7V9.94H16.94ZM14.7 3.5C12.3804 3.5 10.5 5.3804 10.5 7.7V11.2H18.9V7.7C18.9 5.3804 17.0196 3.5 14.7 3.5Z" fill="#B1B1B1"/>
<path fill-rule="evenodd" clip-rule="evenodd" d="M8.96 11.2002V19.8802H20.44V11.2002H8.96ZM8.4 9.24023C7.6268 9.24023 7 9.86704 7 10.6402V20.4402C7 21.2134 7.6268 21.8402 8.4 21.8402H21C21.7732 21.8402 22.4 21.2134 22.4 20.4402V10.6402C22.4 9.86704 21.7732 9.24023 21 9.24023H8.4Z" fill="#B1B1B1"/>
<path d="M16.0998 14.8414C16.0998 15.6146 15.473 16.2414 14.6998 16.2414C13.9266 16.2414 13.2998 15.6146 13.2998 14.8414C13.2998 14.0682 13.9266 13.4414 14.6998 13.4414C15.473 13.4414 16.0998 14.0682 16.0998 14.8414Z" fill="#B1B1B1"/>
<path d="M14.125 15.4164C14.125 15.0991 14.3823 14.8418 14.6996 14.8418C15.017 14.8418 15.2743 15.0991 15.2743 15.4164V17.0672C15.2743 17.3845 15.017 17.6418 14.6996 17.6418C14.3823 17.6418 14.125 17.3845 14.125 17.0672V15.4164Z" fill="#B1B1B1"/>
<path fill-rule="evenodd" clip-rule="evenodd" d="M13.8457 15.4171C13.8457 14.9451 14.2283 14.5625 14.7003 14.5625C15.1723 14.5625 15.555 14.9451 15.555 15.4171V17.0679C15.555 17.5399 15.1723 17.9225 14.7003 17.9225C14.2283 17.9225 13.8457 17.5399 13.8457 17.0679V15.4171ZM14.7003 15.1225C14.5376 15.1225 14.4057 15.2544 14.4057 15.4171V17.0679C14.4057 17.2306 14.5376 17.3625 14.7003 17.3625C14.8631 17.3625 14.995 17.2306 14.995 17.0679V15.4171C14.995 15.2544 14.8631 15.1225 14.7003 15.1225Z" fill="#B1B1B1"/>
</svg>
