<svg width="32" height="32" viewBox="0 0 32 32" fill="none" xmlns="http://www.w3.org/2000/svg">
<g id="Medium">
<circle id="Ellipse 1" cx="16" cy="16" r="16" fill="black"/>
<path id="Vector 460" d="M6 18V14.5L8 12L11.5 11L15 12L17 14.5V19.5L15 21L11.5 22L8 21L6 18Z" fill="white"/>
<path id="Vector 461" d="M17.75 13L20.25 11L22 12L23 14.5V19.5L22 21L20.25 22L18.5 21L17.5 18L17.75 13Z" fill="white"/>
<path id="Vector 462" d="M23.6136 13L24.75 11L25.5455 12L26 14.5V19.5L25.5455 21L24.75 22L23.9545 21L23.5 18L23.6136 13Z" fill="white"/>
</g>
</svg>
