<svg width="20" height="20" viewBox="0 0 20 20" fill="none" xmlns="http://www.w3.org/2000/svg">
<circle cx="10" cy="10" r="10" fill="#FF570E"/>
<path d="M9.97816 14.6193C9.3418 14.6193 8.77504 14.5099 8.27788 14.2912C7.78356 14.0696 7.39293 13.7656 7.106 13.3793C6.82191 12.9901 6.6756 12.5412 6.66708 12.0327H8.52504C8.5364 12.2457 8.606 12.4332 8.73384 12.5952C8.86452 12.7543 9.03782 12.8778 9.25373 12.9659C9.46964 13.054 9.71254 13.098 9.98242 13.098C10.2637 13.098 10.5123 13.0483 10.7282 12.9489C10.9441 12.8494 11.1131 12.7116 11.2353 12.5355C11.3574 12.3594 11.4185 12.1562 11.4185 11.9261C11.4185 11.6932 11.3532 11.4872 11.2225 11.3082C11.0946 11.1264 10.91 10.9844 10.6685 10.8821C10.4299 10.7798 10.1458 10.7287 9.81623 10.7287H9.00231V9.37358H9.81623C10.0946 9.37358 10.3404 9.32528 10.5534 9.22869C10.7694 9.1321 10.937 8.99858 11.0563 8.82812C11.1756 8.65483 11.2353 8.45312 11.2353 8.22301C11.2353 8.00426 11.1827 7.8125 11.0776 7.64773C10.9753 7.48011 10.8304 7.34943 10.6429 7.25568C10.4583 7.16193 10.2424 7.11506 9.99521 7.11506C9.74521 7.11506 9.51651 7.16051 9.30913 7.25142C9.10174 7.33949 8.93555 7.46591 8.81055 7.63068C8.68555 7.79545 8.61879 7.98864 8.61026 8.21023H6.8418C6.85032 7.70739 6.99379 7.2642 7.27219 6.88068C7.5506 6.49716 7.9256 6.19744 8.39719 5.98153C8.87163 5.76278 9.40714 5.65341 10.0037 5.65341C10.606 5.65341 11.133 5.76278 11.5847 5.98153C12.0364 6.20028 12.3873 6.49574 12.6373 6.8679C12.8901 7.23722 13.0151 7.65199 13.0123 8.11222C13.0151 8.60085 12.8631 9.00852 12.5563 9.33523C12.2523 9.66193 11.856 9.86932 11.3674 9.95739V10.0256C12.0094 10.108 12.498 10.331 12.8333 10.6946C13.1713 11.0554 13.339 11.5071 13.3361 12.0497C13.339 12.5469 13.1955 12.9886 12.9057 13.375C12.6188 13.7614 12.2225 14.0653 11.7168 14.2869C11.2111 14.5085 10.6316 14.6193 9.97816 14.6193Z" fill="white"/>
</svg>
