<svg width="20" height="20" viewBox="0 0 21 20" fill="none" xmlns="http://www.w3.org/2000/svg">
<circle cx="10.5" cy="10" r="10" fill="#FF570E"/>
<path d="M7.42809 14V12.6705L10.5346 9.79403C10.7988 9.53835 11.0204 9.30824 11.1994 9.10369C11.3812 8.89915 11.519 8.69886 11.6127 8.50284C11.7065 8.30398 11.7534 8.08949 11.7534 7.85938C11.7534 7.60369 11.6951 7.38352 11.5787 7.19886C11.4622 7.01136 11.3031 6.8679 11.1014 6.76847C10.8997 6.66619 10.671 6.61506 10.4153 6.61506C10.1483 6.61506 9.91531 6.66903 9.71644 6.77699C9.51758 6.88494 9.36417 7.03977 9.25621 7.24148C9.14826 7.44318 9.09428 7.68324 9.09428 7.96165H7.34286C7.34286 7.39062 7.47212 6.89489 7.73065 6.47443C7.98917 6.05398 8.35138 5.72869 8.81729 5.49858C9.2832 5.26847 9.82013 5.15341 10.4281 5.15341C11.0531 5.15341 11.5971 5.2642 12.0602 5.4858C12.5261 5.70455 12.8883 6.00852 13.1468 6.39773C13.4054 6.78693 13.5346 7.23295 13.5346 7.7358C13.5346 8.06534 13.4693 8.39062 13.3386 8.71165C13.2108 9.03267 12.9821 9.3892 12.6525 9.78125C12.323 10.1705 11.8585 10.6378 11.2591 11.1832L9.98491 12.4318V12.4915H13.6497V14H7.42809Z" fill="white"/>
</svg>
