<svg width="16" height="16" viewBox="0 0 16 16" fill="none" xmlns="http://www.w3.org/2000/svg">
<path fill-rule="evenodd" clip-rule="evenodd" d="M8.42603 2.32829L9.93433 3.22266L10.3153 2.86118L10.3163 2.86215L10.9968 2.96325L11.0634 2.90738L11.0641 2.90845L11.6569 2.82212L12.377 3.01168L12.8765 4.13478L12.7014 4.43518L12.7486 4.54121L12.7484 4.54175L12.7486 4.54226L12.4694 5.50982L12.469 5.50959L12.469 5.50983L12.3035 5.70711L13.9441 7.54211L13.6746 10.6553L12.4914 12.8992L12.4913 12.899L12.4912 12.8992L12.4912 12.8989L12.4908 12.8982L12.4905 12.8986L12.4907 12.8981L11.304 10.8796L9.58644 8.94596L9.5666 8.96961L9.30094 8.83955L8.40659 10.0194L7.10769 11.8958L6.09849 13.4883L5.08753 14.0001L4.43632 13.6159L4.43657 13.6157L3.46375 13.0418L3.45488 11.3972L4.86435 9.95284L6.43622 7.56485L6.9526 7.07042L7.12866 6.8801L7.02271 6.5228L7.02271 6.52279L7.25138 6.19113L6.59664 5.39895L3 3.69729L6.3197 2L8.42603 2.32829Z" fill="white"/>
</svg>
