<svg width="24" height="24" viewBox="0 0 24 24" fill="none" xmlns="http://www.w3.org/2000/svg">
<g clip-path="url(#clip0_2199_335249)">
<circle cx="12.0004" cy="12.0004" r="8.6" stroke="#8E9297" stroke-width="2"/>
<path d="M14.9987 10.0316C14.9943 10.9766 14.6111 11.7287 13.8535 12.2852C13.6206 12.4562 13.3689 12.6014 13.1391 12.7762C13.0652 12.8322 13.0001 12.9422 12.9907 13.034C12.9343 13.5673 12.548 13.9672 12.0377 13.998C11.513 14.0294 11.1167 13.6911 11.0052 13.146C10.8544 12.4109 11.1173 11.8337 11.6683 11.3759C11.9438 11.147 12.2531 10.9597 12.5486 10.7547C12.9894 10.4485 13.109 10.1014 12.9287 9.64675C12.7628 9.22797 12.3214 8.96325 11.8799 9.01858C11.4235 9.0758 11.0553 9.44931 11.0109 9.90266C11.0021 9.98818 10.999 10.075 10.9852 10.1598C10.9007 10.6824 10.4499 11.0565 9.95023 11.0213C9.41051 10.9836 9.00916 10.5585 9.0004 10.0146C8.97285 8.38413 10.3772 6.98256 12.0202 7.00016C13.6707 7.01777 15.0118 8.38225 14.9999 10.0316H14.9987Z" fill="#8E9297"/>
<path d="M11 16.0009C10.9987 15.446 11.4426 15.0013 11.9978 15C12.553 14.9988 12.9987 15.4423 13 15.9966C13.0013 16.5508 12.5562 16.9981 12.0022 17C11.4501 17.0019 11.0013 16.5546 11 16.0009Z" fill="#8E9297"/>
</g>
<defs>
<clipPath id="clip0_2199_335249">
<rect width="24" height="24" fill="white"/>
</clipPath>
</defs>
</svg>
