<svg width="24" height="24" viewBox="0 0 24 24" fill="none" xmlns="http://www.w3.org/2000/svg">
<path fill-rule="evenodd" clip-rule="evenodd" d="M19 2.5V8H14.5L14 10H21V3.5L19 2.5Z" fill="#565656"/>
<path fill-rule="evenodd" clip-rule="evenodd" d="M10.121 5.25693C11.6714 4.82488 13.3233 4.9403 14.7986 5.58378C16.2739 6.22725 17.4823 7.35945 18.2205 8.7897L18.6791 9.67834L20.4564 8.76111L19.9977 7.87247C19.0487 6.03357 17.495 4.57789 15.5982 3.75057C13.7014 2.92325 11.5775 2.77484 9.58408 3.33033C7.59068 3.88583 5.8496 5.11129 4.65405 6.80034C3.4585 8.48939 2.88152 10.5388 3.02029 12.6035C3.15906 14.6682 4.00509 16.622 5.4159 18.1359C6.82672 19.6498 8.71613 20.6312 10.7659 20.915C12.8157 21.1987 14.9007 20.7675 16.6697 19.6938C18.4387 18.6201 19.7837 16.9696 20.4781 15.0202L20.8137 14.0782L18.2205 15.0202C17.6804 16.5364 17.0079 17.1489 15.632 17.984C14.2561 18.8191 12.6345 19.1546 11.0402 18.9339C9.44589 18.7132 7.97635 17.9498 6.87904 16.7724C5.78174 15.5949 5.12372 14.0753 5.01579 12.4694C4.90786 10.8635 5.35662 9.26952 6.28649 7.95582C7.21636 6.64212 8.57054 5.68898 10.121 5.25693Z" fill="#565656"/>
</svg>
