<svg width="25" height="24" viewBox="0 0 25 24" fill="current" xmlns="http://www.w3.org/2000/svg">
<path d="M19.8334 19.3333V20.0833H20.5834V19.3333H19.8334ZM5.16675 19.3333H4.41675V20.0833H5.16675V19.3333ZM5.16675 4.66666V3.91666H4.41675V4.66666H5.16675ZM14.8333 3.91666H14.0833V5.41666H14.8333V3.91666ZM19.833 4.66666H20.583V3.91666H19.833V4.66666ZM19.083 9.33307V10.0831H20.583V9.33307H19.083ZM11.3031 12.1359L10.7728 12.6662L11.8334 13.7269L12.3637 13.1966L11.3031 12.1359ZM19.8334 18.5833H5.16675V20.0833H19.8334V18.5833ZM5.91675 19.3333V4.66666H4.41675V19.3333H5.91675ZM5.16675 5.41666H11.1667V3.91666H5.16675V5.41666ZM19.0834 13.3333V19.3333H20.5834V13.3333H19.0834ZM14.8333 5.41666H19.833V3.91666H14.8333V5.41666ZM19.083 4.66666V9.33307H20.583V4.66666H19.083ZM19.3027 4.13633L11.3031 12.1359L12.3637 13.1966L20.3633 5.19699L19.3027 4.13633Z" fill="current"/>
</svg>
