<svg width="32" height="32" viewBox="0 0 32 32" fill="none" xmlns="http://www.w3.org/2000/svg">
<g id="TW">
<path id="Subtract" fill-rule="evenodd" clip-rule="evenodd" d="M16 32C24.8366 32 32 24.8366 32 16C32 7.16344 24.8366 0 16 0C7.16344 0 0 7.16344 0 16C0 24.8366 7.16344 32 16 32ZM23.4681 8L17.516 14.7756L23.9866 24H19.226L14.8671 17.787L9.41025 24H8L14.2417 16.8953L8 8H12.7607L16.8873 13.882L22.0578 8H23.4681ZM14.9505 16.0871L15.5839 16.9734L19.8907 23.0096H22.0571L16.7779 15.6159L16.1472 14.7296L12.0853 9.04117H9.91883L14.9505 16.0871Z" fill="black"/>
</g>
</svg>
